# xmcd
#
# Track frame offsets: 
#        150
#        22535
#        40765
#        61109
#        77928
#        92892
#        113239
#        135573
#        155229
#        172319
#        188658
#        211859
#        228970
#        247955
#        264547
#        279343
#        300709
#
# Disc length: 4305 seconds
#
# Revision: 1
# Processed by: cddbd v1.5.2PL0 Copyright (c) Steve Scherf et al.
# Submitted via: ExactAudioCopy v1.3
#
DISCID=de10cf11
DTITLE=Various Artist - Blues Revue sampler Apr-May 2008
DYEAR=2008
DGENRE=Blues
TTITLE0=The Mystics - Yolanda
TTITLE1=Steve Guyger - Lookie here
TTITLE2=Tas Cru - Feel I'm fallin'
TTITLE3=Al Basile - Go back home to the blues
TTITLE4=Charlie Morris Band - Can't do nothin'
TTITLE5=The Strange Tone - Mamma makes more
TTITLE6=Bill Daison Band - Ashes in my ashtray
TTITLE7=Darcy Perry and Craig Bracken - Too many hard miles
TTITLE8=Bonnie Bramlett - Beautiful
TTITLE9=Jubal Kane - Take me to the river
TTITLE10=Octavia and The Earthblood Blues Band - Playin' for my keep
TTITLE11=Johnny Max Band - (You're) A lesson I've learned
TTITLE12=Duke and The Drivers - Automobile
TTITLE13=Rocky Zharp and The Blues Crackers - Good woman
TTITLE14=Preacher Keen - Wild 4 U baby
TTITLE15=Shane Dwight Band - Good life
TTITLE16=Blues Messiah - Hope you have fun
EXTD=
EXTT0=
EXTT1=
EXTT2=
EXTT3=
EXTT4=
EXTT5=
EXTT6=
EXTT7=
EXTT8=
EXTT9=
EXTT10=
EXTT11=
EXTT12=
EXTT13=
EXTT14=
EXTT15=
EXTT16=
PLAYORDER=
